<svg xmlns="http://www.w3.org/2000/svg" viewBox="0 0 100.39 100.39"><defs><style>.a{fill:#c6af8b;stroke:#6b553b;stroke-miterlimit:10;stroke-width:1.54px;}.b{fill:#231f20;}</style></defs><title>Anthony DeRienzo Logo</title><path class="a" d="M306,322.16a49.43,49.43,0,1,0,49.43,49.43A49.43,49.43,0,0,0,306,322.16Zm0,65.73a16.3,16.3,0,1,1,16.3-16.3A16.3,16.3,0,0,1,306,387.88Z" transform="translate(-255.81 -321.39)"/><path class="b" d="M287.06,339.43q-.63.8-1.2,1.63a2.53,2.53,0,0,0-1.29-.11,3.1,3.1,0,0,0-1.19.59,3,3,0,0,0-1.07,1.3,1,1,0,0,0,.09,1.12c.33.39,1,.34,2-.07q.71-.28,1.43-.52a5.31,5.31,0,0,1,2.79-.32,2.33,2.33,0,0,1,1.56,1.19,3.14,3.14,0,0,1,.22,2.63,4.73,4.73,0,0,1-1.74,2.34,4.83,4.83,0,0,1-2.52,1.06,3.86,3.86,0,0,1-2.54-.7q.61-.86,1.27-1.67a2.45,2.45,0,0,0,1.19.65,2.34,2.34,0,0,0,1.77-.56,2.37,2.37,0,0,0,.91-1.26,1.61,1.61,0,0,0-.19-1.37,1.39,1.39,0,0,0-.39-.41,1.31,1.31,0,0,0-.54-.2,2.45,2.45,0,0,0-.72,0,5.45,5.45,0,0,0-.93.24q-.67.23-1.33.5c-1.89.76-3.23.88-4,0a2.19,2.19,0,0,1-.33-2.38,6,6,0,0,1,2.22-2.84A4.77,4.77,0,0,1,287.06,339.43Z" transform="translate(-255.81 -321.39)"/><path class="b" d="M293,339.46a34.4,34.4,0,0,1,4.31-5.66q1.54-.34,3.1-.56a34,34,0,0,0-5.4,6.09,29,29,0,0,1,6.87,4.23q-1.14.16-2.27.41a28.56,28.56,0,0,0-5.62-3.15l-.27.45,1.59,4q-.81.32-1.61.69l-4.44-9.44q1.09-.51,2.2-1Z" transform="translate(-255.81 -321.39)"/><path class="b" d="M310.43,341.12a31.06,31.06,0,0,0-5.3-.35q-.67,1.28-1.22,2.58-.92.06-1.85.18a37.81,37.81,0,0,1,6.4-11.23,38.67,38.67,0,0,1,4.61,11.95q-.92-.24-1.84-.43Q310.88,342.47,310.43,341.12Zm-.57-1.57a39.3,39.3,0,0,0-1.68-3.72,38.17,38.17,0,0,0-2.26,3.46A32.55,32.55,0,0,1,309.86,339.54Z" transform="translate(-255.81 -321.39)"/><path class="b" d="M320.32,337.31l-3.5,8.24q-.8-.34-1.63-.63l3-8.44q-1.64-.58-3.33-1l.36-1.43a38.57,38.57,0,0,1,9,3.49l-.7,1.3Q321.93,338,320.32,337.31Z" transform="translate(-255.81 -321.39)"/><path class="b" d="M332.11,345.27a37.53,37.53,0,0,0-4.86-4.11l-1.44,2a35,35,0,0,1,4.41,3.71l-1,1.05a33.53,33.53,0,0,0-4.23-3.55l-2,2.85a30,30,0,0,1,3.89,3.28l-1,1a28.43,28.43,0,0,0-5.19-4.11l5.47-8.88a38.88,38.88,0,0,1,7.1,5.62Z" transform="translate(-255.81 -321.39)"/><path class="b" d="M284.4,399.64q-1,1.9-1.92,3.85-1.14-.77-2.25-1.63a98.55,98.55,0,0,1,5.56-9q.94.78,1.92,1.47a25.41,25.41,0,0,1,2.12,1.6,4.84,4.84,0,0,1,1.08,1.39,3.16,3.16,0,0,1,.27,2.62,2.21,2.21,0,0,1-2.05,1.53,6.22,6.22,0,0,1-3.78-1.22Zm.7-1.3.74.51c1.84,1.21,3,1.16,3.45.13s-.25-1.95-2-3.11l-.6-.42Q285.89,396.88,285.09,398.34Z" transform="translate(-255.81 -321.39)"/><path class="b" d="M300.93,401.26a32.31,32.31,0,0,1-5.24-1.23q-.31,1.22-.58,2.46a34.83,34.83,0,0,0,5.47,1.27q0,.74-.09,1.49a36.29,36.29,0,0,1-5.7-1.3q-.36,1.72-.66,3.46a39.8,39.8,0,0,0,6.43,1.38q0,.75,0,1.5a41.3,41.3,0,0,1-9.14-2.22,101.59,101.59,0,0,1,2.78-10.15,30.87,30.87,0,0,0,6.87,1.87Q301,400.52,300.93,401.26Z" transform="translate(-255.81 -321.39)"/><path class="b" d="M303.86,410.55a102.4,102.4,0,0,1-.31-10.5q1.31.09,2.61.07a17.72,17.72,0,0,1,3,.12,7.93,7.93,0,0,1,2.32.7,5.65,5.65,0,0,1,3.13,3.28,3.77,3.77,0,0,1-1.11,4.27,6.7,6.7,0,0,1-2.4,1.46,12.92,12.92,0,0,1-3.78.62Q305.58,410.63,303.86,410.55Zm2.31-1.45,1.09,0a9.79,9.79,0,0,0,2.63-.42,4.91,4.91,0,0,0,1.7-1,2.76,2.76,0,0,0,.89-3,3.92,3.92,0,0,0-2.15-2.46,8.28,8.28,0,0,0-3.94-.63h-.88Q305.69,405.35,306.17,409.1Z" transform="translate(-255.81 -321.39)"/><path class="b" d="M316.88,398a100.83,100.83,0,0,0,4.79,9.34q-1.12.49-2.27.9a101.28,101.28,0,0,1-4.21-9.62Q316,398.29,316.88,398Z" transform="translate(-255.81 -321.39)"/><path class="b" d="M330.94,398.28a36.43,36.43,0,0,1-5.17,4q.07,1.46.06,2.94-1.14.66-2.32,1.25a47.55,47.55,0,0,0-.61-12.62,30.79,30.79,0,0,0,13.06,2.9q-.89,1-1.85,2Q332.49,398.59,330.94,398.28Zm-1.78-.4a31.33,31.33,0,0,1-4-1.31q.34,2,.51,4A34.94,34.94,0,0,0,329.16,397.89Z" transform="translate(-255.81 -321.39)"/><polygon class="b" points="17.31 42.46 19.45 46.81 24.25 47.51 20.78 50.9 21.6 55.68 17.31 53.42 13.01 55.68 13.83 50.9 10.36 47.51 15.16 46.81 17.31 42.46"/><polygon class="b" points="83.67 42.46 85.81 46.81 90.61 47.51 87.14 50.9 87.96 55.68 83.67 53.42 79.37 55.68 80.19 50.9 76.72 47.51 81.52 46.81 83.67 42.46"/></svg>